<?xml version="1.0" encoding="utf-8"?>
<!-- Generator: Adobe Illustrator 26.0.3, SVG Export Plug-In . SVG Version: 6.00 Build 0)  -->
<svg version="1.1" id="Layer_1" xmlns="http://www.w3.org/2000/svg" xmlns:xlink="http://www.w3.org/1999/xlink" x="0px" y="0px"
	 viewBox="0 0 112 100" style="enable-background:new 0 0 112 100;" xml:space="preserve">
<style type="text/css">
	.st0{clip-path:url(#SVGID_00000029014707597110055710000011309489560330898085_);}
	.st1{fill:#416D6D;}
	.st2{fill:#608E8E;}
	.st3{fill:#C86F43;}
</style>
<g>
	<defs>
		<rect id="SVGID_1_" width="111.9" height="100"/>
	</defs>
	<clipPath id="SVGID_00000121961446428290984000000017014218176871914402_">
		<use xlink:href="#SVGID_1_"  style="overflow:visible;"/>
	</clipPath>
	<g style="clip-path:url(#SVGID_00000121961446428290984000000017014218176871914402_);">
		<path class="st1" d="M8.5,85.7l4.9,8.5c1,1.8,2.5,3.2,4.2,4.2l17.6-30.5H0c0,2,0.5,4,1.5,5.8L8.5,85.7z"/>
		<path class="st2" d="M94.3,98.5c1.7-1,3.2-2.4,4.2-4.2l2.1-3.5l9.8-17c1-1.8,1.5-3.8,1.5-5.8H76.7l7.5,14.7L94.3,98.5z"/>
		<path class="st3" d="M56,32.1L73.6,1.5c-1.7-1-3.7-1.5-5.8-1.5H44.1c-2.1,0-4,0.6-5.8,1.5L56,32.1z"/>
		<path class="st1" d="M56,32.1L38.3,1.5c-1.7,1-3.2,2.4-4.2,4.2L1.5,62.2c-1,1.8-1.5,3.7-1.5,5.8h35.3L56,32.1z"/>
		<path class="st2" d="M76.7,67.9H35.3L17.6,98.5c1.7,1,3.7,1.5,5.8,1.5h65.1c2.1,0,4-0.6,5.8-1.5L76.7,67.9z"/>
		<path class="st3" d="M94.1,34L77.8,5.8c-1-1.8-2.5-3.2-4.2-4.2L56,32.1l20.7,35.9h35.2c0-2-0.5-4-1.5-5.8L94.1,34z"/>
	</g>
</g>
</svg>
